<svg xmlns="http://www.w3.org/2000/svg" viewBox="0 0 5994.31 2133.6"><defs><style>.cls-1{fill:#fff;}</style></defs><g id="Layer_2" data-name="Layer 2"><g id="Layer_1-2" data-name="Layer 1"><path class="cls-1" d="M3315.93,2133.6c-1.78-5.16-6.26-5.87-10.77-6.63-19.95-3.35-39.94-6.45-59.82-10.16-103.66-19.34-204.64-47.76-301.14-90.75a1308.78,1308.78,0,0,1-166.28-89.13c-9-5.69-17.71-11.92-26.4-18.12a107.55,107.55,0,0,1-10.26-8.71c-5-4.67-6.49-10.46-4.21-16.9a77.16,77.16,0,0,1,5.39-12.32c4.43-7.81,8.91-15.63,14-23,41.19-60.34,84.06-119.45,130-176.27,4.59-5.67,9.38-11.21,14.5-16.41,6.36-6.45,8.63-6.75,16.26-2.62a143,143,0,0,1,15.79,9.69c76,55.07,161.56,90.33,249.95,119.51,38.43,12.7,77.42,23.49,116.86,32.66,22,5.11,44.18,7.81,66.65,9.58,66.25,5.21,132.58,3.84,198.87,2.3,35.35-.83,70.86-2.49,105.72-9.11,61.89-11.76,120.15-33.29,173-68,30.42-19.94,56.2-44.71,75.63-75.76a152.59,152.59,0,0,0,19.85-48,295.29,295.29,0,0,0,2.25-118.8c-8.54-46.45-33.48-82.75-70.66-111-18.9-14.38-40-25-61.71-34.38-28.47-12.21-58-21.38-87.8-29.59-54.76-15.08-110.36-26.44-166.15-36.91-67.36-12.64-134.9-24.39-202.17-37.55-65.66-12.86-130.62-28.72-194-50.35-44.79-15.28-88.3-33.5-128.5-58.77-64.06-40.26-115.11-93.07-151.87-159.32-23.41-42.21-37.52-87.69-45.3-135.14-9.59-58.44-11.21-117.26-8-176.35,3.78-68.91,24.58-133.32,50.87-196.32,7.15-17.13,16.91-32.95,27.29-48.37,58.29-86.57,135.24-151,230.21-194.14,58.11-26.41,118.78-44.69,181.19-57.5,99.54-20.45,200.14-29.45,301.67-25A1256.39,1256.39,0,0,1,4221.1,351.48c17.63,10.86,17.69,10.85,8.1,28.42-13.19,24.18-28.19,47.27-43.08,70.43q-39.18,61-78.56,121.79c-5.19,8-10.53,16-16.17,23.64a87.83,87.83,0,0,1-11.12,12.62c-9.06,8.37-16.3,9-25.28,1-10.66-9.41-22.61-16.64-35-23.32a1670.59,1670.59,0,0,0-153.75-73c-35-14.52-71.7-22.85-108.53-30.7a1217.14,1217.14,0,0,0-153.27-22.86,368.59,368.59,0,0,0-59-.2,1020.58,1020.58,0,0,0-166.27,26.56c-20.74,5.12-41.29,10.93-61,19.4-41.44,17.82-77.46,43.29-107.18,77.19-25.7,29.32-44,62.66-48.43,101.94-3.87,34.21-3,68.44,5.46,102.09,9.68,38.41,30.59,69.61,61.3,94.4,19.8,16,41.64,28.63,64.7,39.24,42,19.35,86.15,32.53,130.87,43.91,52.32,13.32,105.47,22.65,158.31,33.5,87,17.88,173.78,36.4,260.14,57A672.13,672.13,0,0,1,3953.74,1091q61.2,26.41,119.81,58.07c45.37,24.35,82.72,57.88,113.89,98.48,50.83,66.22,80.28,141.19,90.29,223.84a741.75,741.75,0,0,1,2.6,158.06c-14,151-83.21,270.64-205.16,360.15-44.7,32.81-94,57.28-145.68,76.9-65.86,25-133.64,43.15-202.92,55.63-14.34,2.59-29,3.39-43.5,5.09-6,.71-12.68-.31-16.32,6.4h-13.49c-2.55-.95-5.08-2.67-7.64-2.71-12.13-.19-24.34-.81-36.22,2.71H3353c-10.12-2.54-20.24-5.29-30.36,0Z"/><path class="cls-1" d="M5032.92,2133.6c-2.5-5.54-7.72-5.82-12.71-6.67-26-4.47-52.12-8.58-78.05-13.57-155.55-29.94-301.69-84.37-436.4-168.27-14.29-8.9-28.37-18.24-41.89-28.27-15.68-11.63-16.63-17-7.6-34.2a248,248,0,0,1,14.76-24.53c40.8-59.94,83.45-118.52,128.92-175,4.93-6.12,10.08-12.1,15.58-17.7,6.75-6.87,8.89-7,17.75-2.13a120.28,120.28,0,0,1,12.91,8c86.9,62.77,185.26,100.58,286.76,131.52,27.42,8.35,55.16,15.56,83.1,22,20.87,4.84,42,7.43,63.32,9.13,65.69,5.25,131.46,3.95,197.2,2.51,37-.82,74.28-2.36,110.76-9.51,62.34-12.23,121.15-33.84,174.23-69.46a274.91,274.91,0,0,0,41.53-34.3c32.07-32.17,52.08-70.19,56.2-115.8,2.53-28,2.71-56-1.55-84-7.22-47.4-30.9-84.93-67.8-114.66-17.17-13.83-36.44-24.27-56.47-33.35-31.32-14.2-64-24.62-97.05-33.7-54.78-15-110.37-26.46-166.15-37-72.33-13.64-145.08-25-217.08-40.42-67.65-14.49-134.77-30.87-199.81-54.79-34.35-12.63-67.79-27.29-99.21-46.18-73.59-44.25-130.77-103.93-169-181.08-19.87-40.12-31.24-82.9-38.26-127-6.57-41.22-7.69-82.72-7.32-124.32.24-26.39-.27-52.82,3.89-79,1.06-6.66,1.94-13.35,3.32-19.94a748.27,748.27,0,0,1,39-128.83c11.08-27.18,26.31-52,43.44-75.87C4691,341.36,4771.86,280.05,4869,239.46c60.46-25.26,123.3-42.14,187.61-53.84,88.78-16.16,178.3-23.49,268.5-20a1256.93,1256.93,0,0,1,609.48,185.19c4.31,2.65,8.57,5.37,12.71,8.26a6.8,6.8,0,0,1,2.5,8.94,198.25,198.25,0,0,1-10,19.44c-13.77,22.53-27.62,45-41.82,67.27q-36.73,57.53-73.94,114.76c-5.8,8.95-11.8,17.79-18.07,26.43a84.31,84.31,0,0,1-11.1,12.61c-8.93,8.19-16.4,8.78-25.38.79-12.34-11-26.55-18.84-40.89-26.55a1607.82,1607.82,0,0,0-149.44-70.32c-34.47-14.21-70.7-22.25-107-30.06-39-8.41-78.44-14.55-118-19.53-47.13-5.94-94.11-5.09-141.19,1.26-44.06,5.93-87.66,13.84-130.74,24.82-47.64,12.14-90.52,33.36-128,65.36-27.75,23.71-50.06,51.47-64.55,85.22a165,165,0,0,0-12.6,47,291.38,291.38,0,0,0,4,92.19c8.48,41.19,29.43,74.91,62,101.46a281.58,281.58,0,0,0,46.46,30.44c31.93,16.9,65.66,29.27,100.15,39.72,51.7,15.67,104.5,26.7,157.44,37.21,108.59,21.55,217,44.15,324.49,70.56a570.31,570.31,0,0,1,83.22,27.31c43.1,17.93,85.06,38.17,126.44,59.81,65.29,34.14,114.08,84.77,151.33,147.38,24.34,40.9,41.06,84.85,51.72,131.16,1.38,6,2.55,12.09,4,18.1.81,3.34,2.35,6.31,6,7.56v13.48c-5,6.75-2.73,13.49,0,20.23v158.42c-2.73,5.61-4.77,11.23,0,16.85v13.48c-3.61,1.25-5.15,4.22-5.93,7.58-1.53,6.55-2.82,13.17-4.26,19.74q-25.8,117.52-104.65,208.44c-53.47,61.82-118.48,107.78-192.7,141.26-50.83,22.93-103.64,40.1-157.59,53.9-36.44,9.33-73,18.4-110.48,22.53-8.92,1-17.9,1.42-26.84,2.29-5.5.54-11.44.26-14.86,6h-6.75c-2.53-1-5.05-2.74-7.6-2.79-13.27-.22-26.6-.71-39.62,2.79H5066.66c-9-2.38-18-5.16-27,0Z"/><path class="cls-1" d="M2641.27,0c1,8.09,7.14,12.49,12.56,17.25,19.85,17.42,39.84,34.67,59.8,52q65.6,56.85,131.19,113.7c13.79,12,13.95,14.28,1.58,28.55q-76.7,88.54-153.52,177Q2642.06,447,2591.27,505.55c-5.89,6.79-11.74,13.63-18,20.09-4.59,4.76-8.3,5-13.44,1.18-5.39-4-10.5-8.45-15.61-12.85-15.75-13.57-31.41-27.24-47.18-40.79a106,106,0,0,0-10.7-8.16c-4.24-2.81-8.64-2.3-12.45.94a79.89,79.89,0,0,0-8.38,8.28q-22.73,26-45.31,52.17c-1.47,1.7-2.85,3.47-4.18,5.28-3.28,4.48-3.86,9.25-1.27,14.24s5.42,9.85,7.85,14.91c30.3,63.09,26.76,124.28-12.91,182-27,39.22-65.06,63.47-112.24,71.23-31.4,5.17-62.77,3.36-92.94-8.48-18.23-7.15-19-9.11-34.26,8.68-11.35,13.21-22.79,26.34-34.16,39.53a99.18,99.18,0,0,0-6.41,7.81c-4.64,6.64-4.4,10.57,1.1,16.46a111.42,111.42,0,0,0,8.66,8c16.11,14,32.3,27.92,48.37,42,4.64,4.06,9.15,8.32,13.37,12.81,3.5,3.72,3.56,8.17.64,12.35a132.49,132.49,0,0,1-8.23,10.65q-105,120.89-210,241.72c-17.32,19.93-34.54,39.94-51.87,59.87a122.88,122.88,0,0,1-10.45,10.95c-4,3.55-7.75,3.7-12.32.63a110,110,0,0,1-10.55-8.36q-95.58-82.74-191.12-165.53c-2.54-2.21-5.13-4.4-7.44-6.83-6.19-6.52-6.56-10.27-.77-17.69,6.22-8,13-15.52,19.58-23.16q106-122.24,212.07-244.42,20.43-23.55,41-47a61.57,61.57,0,0,1,7.07-7.19,7.67,7.67,0,0,1,9.42-.71,88.43,88.43,0,0,1,9.33,7.16C2015.8,779,2034,795,2052.36,810.6c17.11,14.54,19.22,14.34,33.92-2.44q18.88-21.54,37.39-43.42c7-8.3,6.94-10.47,1.45-19.43-2.34-3.83-5-7.48-7.38-11.28-57.07-90.77-18.14-213.41,81-254.2,47.71-19.64,95.35-18.4,142.43,2.74,3.07,1.38,6,3.07,9.1,4.4,8.48,3.64,11.28,3.41,17.78-3.82,13.52-15,26.63-30.44,39.86-45.74,4.41-5.09,9-10.08,12.94-15.52,4.22-5.81,3.82-9.76-1.08-15.06a140.85,140.85,0,0,0-11.07-10.36c-15.67-13.66-31.45-27.19-47.11-40.86-19.77-17.26-19.85-18-3.22-37.19q45.78-52.89,91.68-105.66Q2534.52,115.38,2619,18c4.75-5.48,10.23-10.55,12.17-18Z"/><path class="cls-1" d="M0,1375.21c5.29-4.37,6-10.46,6.49-16.73q5.36-72.24,10.78-144.47c1-13.44,2.52-26.85,3.11-40.31.46-10.64,4.27-19.37,11-27.5,24.05-29,47.78-58.19,71.62-87.32,2.49-3.05,5-6.11,7.48-9.13a29.18,29.18,0,0,0,6.88-18.59c.09-3.93.27-7.86.27-11.79q0-98.58,0-197.16c0-10.14-.2-20.19-4.11-29.84-2.36-5.81-2.16-12.13-2.16-18.3,0-65.72-.65-131.45.26-197.16.45-33.14,6-65.95,11.48-98.66,10.16-60.46,26-119.62,40.88-179,8.78-34.9,21.36-68.64,30.58-103.4,2-7.52,5.49-14.75,9.06-21.73,4.07-8,11.26-8.23,15.3-.51a175.56,175.56,0,0,1,10.68,24.69c19.89,58.52,37.4,117.75,53.09,177.52,12.28,46.76,22.58,94,29.44,141.82,3.58,25,5.82,50.14,5.63,75.53-.45,58.42-.15,116.84-.15,175.26,0,10.12-.55,20.08-3.17,30-3,11.43-3.21,23.35-3.22,35.16-.08,57.85-.67,115.72.18,173.56.59,39.92.62,34.21,23.25,60.17q34.33,39.39,69.06,78.43c7.06,7.89,11.05,16.33,11.85,27,2.85,38.08,6.31,76.11,9.55,114.16,1.71,20.14,3.57,40.27,5.12,60.43.77,10.06,1.47,20.18,1.35,30.26-.1,8.4-3.95,12.61-12.25,13.24a341,341,0,0,1-50.54,0c-5.81-.43-10.56-3.57-15.17-6.87-9.14-6.54-18.31-13-27.43-19.61a28.82,28.82,0,0,0-19-5.62c-8.48.48-12.28,3.63-13.53,12-.66,4.44-.56,9-1.29,13.41-1.16,7-6.29,9.83-12.23,6.31-7.18-4.25-15.14-7.67-20-15-3.07-4.66-7.62-6.61-12.93-6.64q-34.56-.13-69.13,0c-5.3,0-9.87,1.88-12.87,6.65-4.36,6.93-11.54,10.57-18.07,14.84-5.06,3.31-10.18.74-11.2-5.37-.82-5-.78-10.08-1.58-15.06-1.19-7.45-5-10.5-12.6-11a24.85,24.85,0,0,0-17.35,5.21c-8,6.15-16.27,12-24,18.49s-16.48,9.08-26.46,9c-18-.07-36,.29-54,.47Z"/><path class="cls-1" d="M94.45,2133.6c-.17-9-.49-18-.49-26.94q0-307.33,0-614.68c0-7.29,0-14.61.57-21.87s3.14-9.58,10.74-10.34a115.92,115.92,0,0,1,11.79-.41q102,0,203.93,0c22.24,0,23,.72,23,22.49q.15,110.31.05,220.61,0,215.57,0,431.12Z"/><path class="cls-1" d="M5994.31,1483.07c-2.73-6.74-5-13.48,0-20.23Z"/><path class="cls-1" d="M5994.31,1658.34c-4.77-5.62-2.73-11.24,0-16.85Z"/><path class="cls-1" d="M627.79,1141.78c2.92-239.09,80.64-450.43,238.42-630.69,150.18-171.57,338.44-279,561.9-324.59a973.48,973.48,0,0,1,165.64-18.85c36-1.08,72-.81,107.86,1.59a1011.24,1011.24,0,0,1,457,144.29c20.28,12.32,20.31,12.43,4.53,30.46q-91,104-182.14,208c-.37.42-.73.85-1.11,1.27-12.72,14.33-12.8,14.48-29.46,6a696.71,696.71,0,0,0-266.08-74.49c-165.27-12-317,27.52-453.46,121.36-127.51,87.71-215.21,205.79-260.48,354.27-24,78.86-31.14,159.55-23.62,241.63,17.58,192,124,367.18,287.35,478.24,88.83,60.39,186.4,99.22,293,113.39,207.66,27.63,393.46-23.61,555.54-157.25,33-27.24,62.48-58.18,89.44-91.47,12-14.81,12.13-14.81,28.16-3.73q113,78.13,226,156.35c17.89,12.39,18,12.56,4.85,29.37q-182.24,233.28-461.26,332.56c-64.81,23-131.44,38.59-199.62,48-60.89,8.37-122,11.81-183.33,8.8-244.19-12-458.79-97.43-640.65-261.68q-176.44-159.37-259.6-382.6c-29.71-80-47.78-162.67-55.05-247.62C629.29,1196.91,627.29,1169.42,627.79,1141.78Z"/></g></g></svg>